
<svg class="callback-btn__icon" version="1.1" id="newton-callback-button" xmlns="http://www.w3.org/2000/svg" xmlns:xlink="http://www.w3.org/1999/xlink"
  x="0px" y="0px" viewBox="0 0 50.5 50.5" style="enable-background:new 0 0 50.5 50.5;" xml:space="preserve">
  <style type="text/css">
    .st0{fill:#402a3a;}
  </style>
  <g>
    <path class="st0" d="M24.6,13.3c-0.8,0.2-1.7,0.4-2.5,0.8c-6,2.5-9.3,8.7-8.2,14.8c0,0.3,0,0.5,0.1,0.8c0.3,0.7,1.2,1.1,1.9,0.8
      c0.7-0.3,1.1-1.2,0.8-1.9c0,0,0,0,0-0.1c-0.8-4.9,1.8-9.9,6.7-11.9c0.4-0.2,0.7-0.3,1.1-0.4c0.3,0.1,0.6,0.1,1,0
      c0.7-0.3,1.1-1.2,0.8-1.9C25.8,13.6,25.2,13.3,24.6,13.3C24.6,13.3,24.6,13.3,24.6,13.3z M32.5,18.2l0.9-13.9
      c-2.4,0.5-2.4,2.6-2.4,2.6l-0.5,5.7C29.6,17.9,32.5,18.2,32.5,18.2z M10.6,31.6c0.6-0.3,0.9-0.9,0.8-1.5l0,0
      c-1.6-7.5,2.3-15.3,9.7-18.4c0.9-0.4,1.8-0.6,2.7-0.8l0-0.1c0,0,0.1,0,0.1,0c0.7-0.3,1.1-1.1,0.8-1.9s-1.2-1.1-1.9-0.7
      c-0.1,0-0.2,0.1-0.3,0.2c-0.9,0.2-1.7,0.5-2.6,0.9C11.3,12.7,6.7,21.8,8.6,30.6l0,0c0,0.1,0,0.2,0.1,0.3C9,31.6,9.9,31.9,10.6,31.6
      z M40.3,5.4c-1.3-1.8-5.8-1-5.8-1l-1,14.2l0.3,0.3l1.8,0.8c0.3,0.3,0.4,1,0.4,1c-1.3,4.9-3.5,7.5-3.5,7.5c-3.6,6.4-6.3,8.2-6.3,8.2
      c-0.7,0.5-1.2,0.4-1.2,0.4c-0.5,0-2.3-1.4-2.3-1.4L10,42.8c1.7,4.6,3.8,4.4,3.8,4.4C30.5,46.7,38,32.6,38,32.6
      C47.9,18.2,40.3,5.4,40.3,5.4z M19.3,33.8c0,0-5.7,2.4-9.4,5s-1,1.1-0.4,2.8l12.3-7.1C21.8,34.4,20.4,33.4,19.3,33.8z"/>
    </g>
  </svg>
