<svg
 xmlns="http://www.w3.org/2000/svg"
 xmlns:xlink="http://www.w3.org/1999/xlink"
 width="13px" height="20px">
<defs>
<filter id="Filter_0">
    <feFlood flood-color="rgb(255, 205, 157)" flood-opacity="1" result="floodOut" />
    <feComposite operator="atop" in="floodOut" in2="SourceGraphic" result="compOut" />
    <feBlend mode="normal" in="compOut" in2="SourceGraphic" />
</filter>

</defs>
<g filter="url(#Filter_0)">
<path fill-rule="evenodd"  fill="rgb(255, 255, 255)"
 d="M1.686,4.391 C1.887,4.705 2.195,4.861 2.608,4.861 C2.790,4.861 2.973,4.815 3.155,4.721 C3.338,4.629 3.552,4.525 3.797,4.410 C4.041,4.295 4.334,4.191 4.676,4.098 C5.016,4.005 5.441,3.958 5.951,3.958 C6.614,3.958 7.135,4.109 7.514,4.410 C7.894,4.711 8.083,5.117 8.083,5.626 C8.083,6.067 7.970,6.447 7.745,6.766 C7.519,7.083 7.243,7.372 6.916,7.631 C6.589,7.890 6.239,8.132 5.864,8.357 C5.490,8.582 5.151,8.820 4.848,9.070 C4.546,9.321 4.308,9.601 4.135,9.910 C3.962,10.220 3.914,10.583 3.991,10.999 L4.308,13.049 L7.363,13.049 L7.766,11.267 C7.833,11.003 7.990,10.765 8.235,10.554 C8.480,10.341 8.768,10.127 9.099,9.910 C9.431,9.694 9.781,9.458 10.151,9.204 C10.521,8.949 10.859,8.647 11.167,8.300 C11.474,7.952 11.729,7.542 11.931,7.071 C12.132,6.600 12.233,6.042 12.233,5.397 C12.233,4.717 12.096,4.100 11.823,3.544 C11.549,2.987 11.157,2.512 10.648,2.118 C10.139,1.723 9.522,1.420 8.797,1.208 C8.071,0.995 7.257,0.889 6.354,0.889 C5.710,0.889 5.113,0.938 4.560,1.035 C4.008,1.133 3.491,1.268 3.011,1.443 C2.531,1.617 2.082,1.820 1.664,2.048 C1.246,2.277 0.859,2.523 0.504,2.787 L1.686,4.391 ZM3.350,18.505 C3.479,18.772 3.657,19.004 3.883,19.199 C4.109,19.395 4.375,19.547 4.683,19.657 C4.990,19.767 5.326,19.823 5.691,19.823 C6.047,19.823 6.378,19.767 6.686,19.657 C6.993,19.547 7.262,19.395 7.493,19.199 C7.723,19.004 7.903,18.772 8.033,18.505 C8.163,18.237 8.227,17.951 8.227,17.645 C8.227,17.340 8.163,17.056 8.033,16.792 C7.903,16.529 7.723,16.300 7.493,16.105 C7.262,15.909 6.993,15.754 6.686,15.640 C6.378,15.526 6.047,15.469 5.691,15.469 C5.326,15.469 4.990,15.526 4.683,15.640 C4.375,15.754 4.109,15.909 3.883,16.105 C3.657,16.300 3.479,16.529 3.350,16.792 C3.220,17.056 3.155,17.340 3.155,17.645 C3.155,17.951 3.220,18.237 3.350,18.505 Z"/>
</g>
</svg>
